<?xml version="1.0" encoding="utf-8"?>
<svg contentScriptType="text/ecmascript" xmlns:xlink="http://www.w3.org/1999/xlink" zoomAndPan="magnify" contentStyleType="text/css" viewBox="237.0 92.0 775.0 680.4999999999991" xmlns:cacoo="http://cacoo.com/" preserveAspectRatio="xMidYMin meet" xmlns="http://www.w3.org/2000/svg" version="1.1"><defs><marker refX="14.0" refY="7.0" markerUnits="userSpaceOnUse" orient="auto" id="id2" markerHeight="14.0" viewBox="0 0 14.0 14.0" preserveAspectRatio="xMidYMid meet" markerWidth="14.0" overflow="visible"><path fill="#000000" d="M7.0 3.5 L14.0 7.0 L7.0 10.5z" stroke-width="3.0" stroke-linejoin="round" stroke-linecap="round" stroke="#000000"/></marker><marker refX="14.0" refY="7.0" markerUnits="userSpaceOnUse" orient="auto" id="id4" markerHeight="14.0" viewBox="0 0 14.0 14.0" preserveAspectRatio="xMidYMid meet" markerWidth="14.0" overflow="visible"><path fill="#000000" d="M7.0 3.5 L14.0 7.0 L7.0 10.5z" stroke-width="3.0" stroke-linejoin="round" stroke-linecap="round" stroke="#000000"/></marker><marker refX="14.0" refY="7.0" markerUnits="userSpaceOnUse" orient="auto" id="id12" markerHeight="14.0" viewBox="0 0 14.0 14.0" preserveAspectRatio="xMidYMid meet" markerWidth="14.0" overflow="visible"><path fill="#000000" d="M7.0 3.5 L14.0 7.0 L7.0 10.5z" stroke-width="3.0" stroke-linejoin="round" stroke-linecap="round" stroke="#000000"/></marker><marker refX="14.0" refY="7.0" markerUnits="userSpaceOnUse" orient="auto" id="id13" markerHeight="14.0" viewBox="0 0 14.0 14.0" preserveAspectRatio="xMidYMid meet" markerWidth="14.0" overflow="visible"><path fill="#000000" d="M7.0 3.5 L14.0 7.0 L7.0 10.5z" stroke-width="3.0" stroke-linejoin="round" stroke-linecap="round" stroke="#000000"/></marker><marker refX="14.0" refY="7.0" markerUnits="userSpaceOnUse" orient="auto" id="id14" markerHeight="14.0" viewBox="0 0 14.0 14.0" preserveAspectRatio="xMidYMid meet" markerWidth="14.0" overflow="visible"><path fill="#000000" d="M7.0 3.5 L14.0 7.0 L7.0 10.5z" stroke-width="3.0" stroke-linejoin="round" stroke-linecap="round" stroke="#000000"/></marker><marker refX="14.0" refY="7.0" markerUnits="userSpaceOnUse" orient="auto" id="id15" markerHeight="14.0" viewBox="0 0 14.0 14.0" preserveAspectRatio="xMidYMid meet" markerWidth="14.0" overflow="visible"><path fill="#000000" d="M7.0 3.5 L14.0 7.0 L7.0 10.5z" stroke-width="3.0" stroke-linejoin="round" stroke-linecap="round" stroke="#000000"/></marker><marker refX="14.0" refY="7.0" markerUnits="userSpaceOnUse" orient="auto" id="id16" markerHeight="14.0" viewBox="0 0 14.0 14.0" preserveAspectRatio="xMidYMid meet" markerWidth="14.0" overflow="visible"><path fill="#000000" d="M7.0 3.5 L14.0 7.0 L7.0 10.5z" stroke-width="3.0" stroke-linejoin="round" stroke-linecap="round" stroke="#000000"/></marker><marker refX="14.0" refY="7.0" markerUnits="userSpaceOnUse" orient="auto" id="id17" markerHeight="14.0" viewBox="0 0 14.0 14.0" preserveAspectRatio="xMidYMid meet" markerWidth="14.0" overflow="visible"><path fill="#000000" d="M7.0 3.5 L14.0 7.0 L7.0 10.5z" stroke-width="3.0" stroke-linejoin="round" stroke-linecap="round" stroke="#000000"/></marker></defs><g><g transform="translate(529.0 107.0)"><path fill="#dc0800" fill-opacity="1.0" d="M152.6666666666667 16.999999999999996 Q152.6666666666667 31.999999999999996 137.6666666666667 31.999999999999996 L15.0 31.999999999999996 Q0.0 31.999999999999996 0.0 16.999999999999996 L0.0 15.0 Q0.0 0.0 15.0 0.0 L137.6666666666667 0.0 Q152.6666666666667 0.0 152.6666666666667 15.0 L152.6666666666667 16.999999999999996 L152.6666666666667 16.999999999999996z" stroke-width="1.0" stroke-linejoin="round" stroke="#000000"/><g transform="translate(1.0 1.0)"><clipPath id="id0"><path d="M0 0 L150.66666666666663 0 L150.66666666666663 30.0 L0 30.0z"/></clipPath><text font-size="20" clip-path="url(#id0)" text-decoration="none" fill="#ffffff" font-family="Arial,Arial" font-style="normal" font-weight="normal"><tspan x="14.0" xml:space="preserve" y="22.0" textLength="123.0">User Program</tspan></text></g></g><g transform="translate(529.0 202.0)"><path fill="#51b11d" fill-opacity="1.0" d="M152.6666666666667 16.999999999999996 Q152.6666666666667 31.999999999999996 137.6666666666667 31.999999999999996 L15.0 31.999999999999996 Q0.0 31.999999999999996 0.0 16.999999999999996 L0.0 15.0 Q0.0 0.0 15.0 0.0 L137.6666666666667 0.0 Q152.6666666666667 0.0 152.6666666666667 15.0 L152.6666666666667 16.999999999999996 L152.6666666666667 16.999999999999996z" stroke-width="1.0" stroke-linejoin="round" stroke="#000000"/><g transform="translate(1.0 1.0)"><clipPath id="id1"><path d="M0 0 L150.66666666666652 0 L150.66666666666652 30.0 L0 30.0z"/></clipPath><text font-size="20" clip-path="url(#id1)" text-decoration="none" fill="#ffffff" font-family="Arial,Arial" font-style="normal" font-weight="normal"><tspan x="45.0" xml:space="preserve" y="22.0" textLength="61.0">Lib call</tspan></text></g></g><path fill="none" marker-end="url(#id2)" d="M605.3333333333334 139.0 L605.3333333333334 202.0" stroke-width="3.0" stroke-linejoin="round" stroke="#000000"/><g transform="translate(252.0 305.5)"><path fill="#286bcc" fill-opacity="1.0" d="M706.6666666666673 436.99999999999915 Q706.6666666666673 451.99999999999915 691.6666666666673 451.99999999999915 L15.0 451.99999999999915 Q0.0 451.99999999999915 0.0 436.99999999999915 L0.0 15.0 Q0.0 0.0 15.0 0.0 L691.6666666666673 0.0 Q706.6666666666673 0.0 706.6666666666673 15.0 L706.6666666666673 436.99999999999915 L706.6666666666673 436.99999999999915z" stroke-width="1.0" stroke-linejoin="round" stroke="#000000"/><g transform="translate(1.0 1.0)"><clipPath id="id3"><path d="M0 0 L704.6666666666665 0 L704.6666666666665 450.0 L0 450.0z"/></clipPath><text font-size="20" clip-path="url(#id3)" text-decoration="none" fill="#000000" font-family="Arial,Arial" font-style="normal" font-weight="normal"/></g></g><path fill="none" marker-end="url(#id4)" d="M605.3333333333334 234.0 L605.3333333333335 305.5" stroke-width="3.0" stroke-linejoin="round" stroke="#000000"/><g transform="translate(287.5 337.0)"><clipPath id="id5"><path d="M0 0 L85.0 0 L85.0 26.0 L0 26.0z"/></clipPath><text font-size="23" clip-path="url(#id5)" text-decoration="none" fill="#ffffff" font-family="Arial,Arial" font-style="normal" font-weight="bold"><tspan x="2.0" xml:space="preserve" y="23.0" textLength="74.0">Kernel</tspan></text></g><g transform="translate(322.0 384.0)"><path fill="#9ac7bf" fill-opacity="1.0" d="M193.99999999999994 56.99999999999994 Q193.99999999999994 71.99999999999994 178.99999999999994 71.99999999999994 L15.0 71.99999999999994 Q0.0 71.99999999999994 0.0 56.99999999999994 L0.0 15.0 Q0.0 0.0 15.0 0.0 L178.99999999999994 0.0 Q193.99999999999994 0.0 193.99999999999994 15.0 L193.99999999999994 56.99999999999994 L193.99999999999994 56.99999999999994z" stroke-width="1.0" stroke-linejoin="round" stroke="#000000"/><g transform="translate(1.0 1.0)"><clipPath id="id6"><path d="M0 0 L192.0 0 L192.0 70.0 L0 70.0z"/></clipPath><text font-size="20" clip-path="url(#id6)" text-decoration="none" fill="#ffffff" font-family="Arial,Arial" font-style="normal" font-weight="normal"><tspan x="81.0" xml:space="preserve" y="42.0" textLength="30.0">PM</tspan></text></g></g><g transform="translate(529.0 384.0)"><path fill="#9ac7bf" fill-opacity="1.0" d="M193.99999999999994 56.99999999999994 Q193.99999999999994 71.99999999999994 178.99999999999994 71.99999999999994 L15.0 71.99999999999994 Q0.0 71.99999999999994 0.0 56.99999999999994 L0.0 15.0 Q0.0 0.0 15.0 0.0 L178.99999999999994 0.0 Q193.99999999999994 0.0 193.99999999999994 15.0 L193.99999999999994 56.99999999999994 L193.99999999999994 56.99999999999994z" stroke-width="1.0" stroke-linejoin="round" stroke="#000000"/><g transform="translate(1.0 1.0)"><clipPath id="id7"><path d="M0 0 L192.0 0 L192.0 70.0 L0 70.0z"/></clipPath><text font-size="20" clip-path="url(#id7)" text-decoration="none" fill="#ffffff" font-family="Arial,Arial" font-style="normal" font-weight="normal"><tspan x="77.0" xml:space="preserve" y="42.0" textLength="38.0">VFS</tspan></text></g></g><g transform="translate(734.0 384.0)"><path fill="#9ac7bf" fill-opacity="1.0" d="M193.99999999999994 56.99999999999994 Q193.99999999999994 71.99999999999994 178.99999999999994 71.99999999999994 L15.0 71.99999999999994 Q0.0 71.99999999999994 0.0 56.99999999999994 L0.0 15.0 Q0.0 0.0 15.0 0.0 L178.99999999999994 0.0 Q193.99999999999994 0.0 193.99999999999994 15.0 L193.99999999999994 56.99999999999994 L193.99999999999994 56.99999999999994z" stroke-width="1.0" stroke-linejoin="round" stroke="#000000"/><g transform="translate(1.0 1.0)"><clipPath id="id8"><path d="M0 0 L192.0 0 L192.0 70.0 L0 70.0z"/></clipPath><text font-size="20" clip-path="url(#id8)" text-decoration="none" fill="#ffffff" font-family="Arial,Arial" font-style="normal" font-weight="normal"><tspan x="87.0" xml:space="preserve" y="42.0" textLength="18.0">...</tspan></text></g></g><g transform="translate(460.0 556.0)"><path fill="#ffbf00" fill-opacity="1.0" d="M97.00000000000004 107.0 Q97.00000000000004 122.0 82.00000000000004 122.0 L15.0 122.0 Q0.0 122.0 0.0 107.0 L0.0 15.0 Q0.0 0.0 15.0 0.0 L82.00000000000004 0.0 Q97.00000000000004 0.0 97.00000000000004 15.0 L97.00000000000004 107.0 L97.00000000000004 107.0z" stroke-width="1.0" stroke-linejoin="round" stroke="#000000"/><g transform="translate(1.0 1.0)"><clipPath id="id9"><path d="M0 0 L95.0 0 L95.0 120.0 L0 120.0z"/></clipPath><text font-size="19" clip-path="url(#id9)" text-decoration="none" fill="#ffffff" font-family="Arial,Arial" font-style="normal" font-weight="normal"><tspan x="27.0" xml:space="preserve" y="66.5" textLength="40.0">MFS</tspan></text></g></g><g transform="translate(577.5 556.0)"><path fill="#ffbf00" fill-opacity="1.0" d="M97.00000000000004 107.0 Q97.00000000000004 122.0 82.00000000000004 122.0 L15.0 122.0 Q0.0 122.0 0.0 107.0 L0.0 15.0 Q0.0 0.0 15.0 0.0 L82.00000000000004 0.0 Q97.00000000000004 0.0 97.00000000000004 15.0 L97.00000000000004 107.0 L97.00000000000004 107.0z" stroke-width="1.0" stroke-linejoin="round" stroke="#000000"/><g transform="translate(1.0 1.0)"><clipPath id="id10"><path d="M0 0 L95.0 0 L95.0 120.0 L0 120.0z"/></clipPath><text font-size="19" clip-path="url(#id10)" text-decoration="none" fill="#ffffff" font-family="Arial,Arial" font-style="normal" font-weight="normal"><tspan x="21.0" xml:space="preserve" y="66.5" textLength="53.0">HGFS</tspan></text></g></g><g transform="translate(695.0 556.0)"><path fill="#ffbf00" fill-opacity="1.0" d="M97.00000000000004 107.0 Q97.00000000000004 122.0 82.00000000000004 122.0 L15.0 122.0 Q0.0 122.0 0.0 107.0 L0.0 15.0 Q0.0 0.0 15.0 0.0 L82.00000000000004 0.0 Q97.00000000000004 0.0 97.00000000000004 15.0 L97.00000000000004 107.0 L97.00000000000004 107.0z" stroke-width="1.0" stroke-linejoin="round" stroke="#000000"/><g transform="translate(1.0 1.0)"><clipPath id="id11"><path d="M0 0 L95.0 0 L95.0 120.0 L0 120.0z"/></clipPath><text font-size="19" clip-path="url(#id11)" text-decoration="none" fill="#ffffff" font-family="Arial,Arial" font-style="normal" font-weight="normal"><tspan x="40.0" xml:space="preserve" y="66.5" textLength="15.0">...</tspan></text></g></g><path fill="none" marker-end="url(#id12)" d="M577.5 455.99999999999994 L508.5 556.0" stroke-width="3.0" stroke-linejoin="round" stroke="#000000"/><path fill="none" stroke-linejoin="round" stroke-dasharray="3.0 3.0" d="M626.0 455.99999999999994 L626.0 556.0" stroke="#000000" stroke-width="3.0" marker-end="url(#id13)"/><path fill="none" stroke-linejoin="round" stroke-dasharray="3.0 3.0" d="M674.4999999999999 455.99999999999994 L743.5 556.0" stroke="#000000" stroke-width="3.0" marker-end="url(#id14)"/><path fill="none" stroke-linejoin="round" stroke-dasharray="3.0 3.0" d="M428.66666666666686 305.5 L419.0 384.0" stroke="#000000" stroke-width="3.0" marker-end="url(#id15)"/><path fill="none" marker-end="url(#id16)" d="M605.3333333333337 305.5 L626.0 384.0" stroke-width="3.0" stroke-linejoin="round" stroke="#000000"/><path fill="none" stroke-linejoin="round" stroke-dasharray="3.0 3.0" d="M782.0000000000016 305.5 L831.0 384.0" stroke="#000000" stroke-width="3.0" marker-end="url(#id17)"/><g transform="translate(616.0 150.0)"><clipPath id="id18"><path d="M0 0 L381.0 0 L381.0 40.0 L0 40.0z"/></clipPath><text font-size="16" clip-path="url(#id18)" text-decoration="none" fill="#000000" font-family="Arial,Arial" font-style="normal" font-weight="normal"><tspan x="2.0" xml:space="preserve" y="17.0" textLength="360.0">Appel de la fonction nfrag ou defrag dans la librairie </tspan><tspan x="2.0" xml:space="preserve" y="36.0" textLength="89.0">&lt;newcalls.h&gt;</tspan></text></g><g transform="translate(621.0 246.0)"><clipPath id="id19"><path d="M0 0 L347.0 0 L347.0 40.0 L0 40.0z"/></clipPath><text font-size="16" clip-path="url(#id19)" text-decoration="none" fill="#000000" font-family="Arial,Arial" font-style="normal" font-weight="normal"><tspan x="2.0" xml:space="preserve" y="17.0" textLength="336.0">Envoie de l&apos;appel système NFRAG ou DEFRAG </tspan><tspan x="2.0" xml:space="preserve" y="36.0" textLength="129.0">au processus VFS</tspan></text></g><g transform="translate(641.0 331.0)"><clipPath id="id20"><path d="M0 0 L150.0 0 L150.0 40.0 L0 40.0z"/></clipPath><text font-size="12" clip-path="url(#id20)" text-decoration="none" fill="#000000" font-family="Arial,Arial" font-style="normal" font-weight="normal"/></g><g transform="translate(287.5 466.0)"><clipPath id="id21"><path d="M0 0 L254.5 0 L254.5 90.0 L0 90.0z"/></clipPath><text font-size="14" clip-path="url(#id21)" text-decoration="none" fill="#000000" font-family="Arial,Arial" font-style="normal" font-weight="normal"><tspan x="2.0" xml:space="preserve" y="15.0" textLength="202.0">Envoi de l&apos;appel FS_NFRAG ou </tspan><tspan x="2.0" xml:space="preserve" y="31.0" textLength="253.0">FS_DEFRAG au processus du système </tspan><tspan x="2.0" xml:space="preserve" y="47.0" textLength="96.0">de fichier voulu</tspan></text></g></g></svg>